HIERARCHY
ROOT Hips
{
	OFFSET -14.64140 90.27770 -84.91600
	CHANNELS 6 Xposition Yposition Zposition Zrotation Xrotation Yrotation
	JOINT Spine
	{
		OFFSET 0.00000 13.20850 -1.60436
		CHANNELS 3 Zrotation Xrotation Yrotation
		JOINT Spine1
		{
			OFFSET 0.00000 8.61716 0.00000
			CHANNELS 3 Zrotation Xrotation Yrotation
			JOINT Spine2
			{
				OFFSET 0.00000 8.61717 0.00000
				CHANNELS 3 Zrotation Xrotation Yrotation
				JOINT Spine3
				{
					OFFSET 0.00000 8.61717 0.00000
					CHANNELS 3 Zrotation Xrotation Yrotation
					JOINT Neck
					{
						OFFSET 0.00000 11.07920 1.10792
						CHANNELS 3 Zrotation Xrotation Yrotation
						JOINT Neck1
						{
							OFFSET 0.00000 7.08032 0.00000
							CHANNELS 3 Zrotation Xrotation Yrotation
							JOINT Head
							{
								OFFSET 0.00000 7.08031 0.00000
								CHANNELS 3 Zrotation Xrotation Yrotation
								End site
								{
									OFFSET 0.00000 0.00000 0.00000
								}
							}
						}
					}
					JOINT RightShoulder
					{
						OFFSET -0.01000 7.91373 5.19711
						CHANNELS 3 Zrotation Xrotation Yrotation
						JOINT RightArm
						{
							OFFSET -18.41580 0.00000 0.00000
							CHANNELS 3 Zrotation Xrotation Yrotation
							JOINT RightForeArm
							{
								OFFSET -29.11090 0.00000 0.00000
								CHANNELS 3 Zrotation Xrotation Yrotation
								JOINT RightHand
								{
									OFFSET -24.65040 0.00000 0.00000
									CHANNELS 3 Zrotation Xrotation Yrotation
									JOINT RightHandThumb1
									{
										OFFSET -5.35114 -0.85590 3.97906
										CHANNELS 3 Zrotation Xrotation Yrotation
										JOINT RightHandThumb2
										{
											OFFSET -4.52789 0.00000 0.00000
											CHANNELS 3 Zrotation Xrotation Yrotation
											JOINT RightHandThumb3
											{
												OFFSET -2.46976 0.00000 0.00000
												CHANNELS 3 Zrotation Xrotation Yrotation
												End site
												{
													OFFSET 0.00000 0.00000 0.00000
												}
											}
										}
									}
									JOINT RightHandIndex1
									{
										OFFSET -14.26970 0.00000 2.88139
										CHANNELS 3 Zrotation Xrotation Yrotation
										JOINT RightHandIndex2
										{
											OFFSET -5.48836 0.00000 0.00000
											CHANNELS 3 Zrotation Xrotation Yrotation
											JOINT RightHandIndex3
											{
												OFFSET -3.01859 0.00000 0.00000
												CHANNELS 3 Zrotation Xrotation Yrotation
												End site
												{
													OFFSET 0.00000 0.00000 0.00000
												}
											}
										}
									}
									JOINT RightHandMiddle1
									{
										OFFSET -14.26970 0.00000 -0.09147
										CHANNELS 3 Zrotation Xrotation Yrotation
										JOINT RightHandMiddle2
										{
											OFFSET -6.17441 0.00000 0.00000
											CHANNELS 3 Zrotation Xrotation Yrotation
											JOINT RightHandMiddle3
											{
												OFFSET -3.56743 0.00000 0.00000
												CHANNELS 3 Zrotation Xrotation Yrotation
												End site
												{
													OFFSET 0.00000 0.00000 0.00000
												}
											}
										}
									}
									JOINT RightHandRing1
									{
										OFFSET -12.69180 0.00000 -3.06433
										CHANNELS 3 Zrotation Xrotation Yrotation
										JOINT RightHandRing2
										{
											OFFSET -5.62556 0.00000 0.00000
											CHANNELS 3 Zrotation Xrotation Yrotation
											JOINT RightHandRing3
											{
												OFFSET -3.56744 0.00000 0.00000
												CHANNELS 3 Zrotation Xrotation Yrotation
												End site
												{
													OFFSET 0.00000 0.00000 0.00000
												}
											}
										}
									}
									JOINT RightHandPinky1
									{
										OFFSET -11.11390 0.00000 -6.03719
										CHANNELS 3 Zrotation Xrotation Yrotation
										JOINT RightHandPinky2
										{
											OFFSET -4.52789 0.00000 0.00000
											CHANNELS 3 Zrotation Xrotation Yrotation
											JOINT RightHandPinky3
											{
												OFFSET -2.46976 0.00000 0.00000
												CHANNELS 3 Zrotation Xrotation Yrotation
												End site
												{
													OFFSET 0.00000 0.00000 0.00000
												}
											}
										}
									}
								}
							}
						}
					}
					JOINT LeftShoulder
					{
						OFFSET 0.01000 7.91373 5.19711
						CHANNELS 3 Zrotation Xrotation Yrotation
						JOINT LeftArm
						{
							OFFSET 18.41580 0.00000 0.00000
							CHANNELS 3 Zrotation Xrotation Yrotation
							JOINT LeftForeArm
							{
								OFFSET 29.11090 0.00000 0.00000
								CHANNELS 3 Zrotation Xrotation Yrotation
								JOINT LeftHand
								{
									OFFSET 24.65040 0.00000 0.00000
									CHANNELS 3 Zrotation Xrotation Yrotation
									JOINT LeftHandThumb1
									{
										OFFSET 5.35114 -0.85590 3.97906
										CHANNELS 3 Zrotation Xrotation Yrotation
										JOINT LeftHandThumb2
										{
											OFFSET 4.52789 0.00000 0.00000
											CHANNELS 3 Zrotation Xrotation Yrotation
											JOINT LeftHandThumb3
											{
												OFFSET 2.46977 0.00000 0.00000
												CHANNELS 3 Zrotation Xrotation Yrotation
												End site
												{
													OFFSET 0.00000 0.00000 0.00000
												}
											}
										}
									}
									JOINT LeftHandIndex1
									{
										OFFSET 14.26970 0.00000 2.88139
										CHANNELS 3 Zrotation Xrotation Yrotation
										JOINT LeftHandIndex2
										{
											OFFSET 5.48836 0.00000 0.00000
											CHANNELS 3 Zrotation Xrotation Yrotation
											JOINT LeftHandIndex3
											{
												OFFSET 3.01859 0.00000 0.00000
												CHANNELS 3 Zrotation Xrotation Yrotation
												End site
												{
													OFFSET 0.00000 0.00000 0.00000
												}
											}
										}
									}
									JOINT LeftHandMiddle1
									{
										OFFSET 14.26970 0.00000 -0.09147
										CHANNELS 3 Zrotation Xrotation Yrotation
										JOINT LeftHandMiddle2
										{
											OFFSET 6.17440 0.00000 0.00000
											CHANNELS 3 Zrotation Xrotation Yrotation
											JOINT LeftHandMiddle3
											{
												OFFSET 3.56744 0.00000 0.00000
												CHANNELS 3 Zrotation Xrotation Yrotation
												End site
												{
													OFFSET 0.00000 0.00000 0.00000
												}
											}
										}
									}
									JOINT LeftHandRing1
									{
										OFFSET 12.69180 0.00000 -3.06433
										CHANNELS 3 Zrotation Xrotation Yrotation
										JOINT LeftHandRing2
										{
											OFFSET 5.62556 0.00000 0.00000
											CHANNELS 3 Zrotation Xrotation Yrotation
											JOINT LeftHandRing3
											{
												OFFSET 3.56744 0.00000 0.00000
												CHANNELS 3 Zrotation Xrotation Yrotation
												End site
												{
													OFFSET 0.00000 0.00000 0.00000
												}
											}
										}
									}
									JOINT LeftHandPinky1
									{
										OFFSET 11.11390 0.00000 -6.03719
										CHANNELS 3 Zrotation Xrotation Yrotation
										JOINT LeftHandPinky2
										{
											OFFSET 4.52789 0.00000 0.00000
											CHANNELS 3 Zrotation Xrotation Yrotation
											JOINT LeftHandPinky3
											{
												OFFSET 2.46976 0.00000 0.00000
												CHANNELS 3 Zrotation Xrotation Yrotation
												End site
												{
													OFFSET 0.00000 0.00000 0.00000
												}
											}
										}
									}
								}
							}
						}
					}
					JOINT pCube4
					{
						OFFSET 0.00000 10.91090 1.10792
						CHANNELS 3 Zrotation Xrotation Yrotation
						End site
						{
							OFFSET 0.00000 0.00000 0.00000
						}
					}
				}
			}
		}
	}
	JOINT RightUpLeg
	{
		OFFSET -9.98441 0.00000 0.00000
		CHANNELS 3 Zrotation Xrotation Yrotation
		JOINT RightLeg
		{
			OFFSET 0.00000 -42.11790 0.00000
			CHANNELS 3 Zrotation Xrotation Yrotation
			JOINT RightFoot
			{
				OFFSET 0.00000 -45.00020 -0.00001
				CHANNELS 3 Zrotation Xrotation Yrotation
				JOINT RightForeFoot
				{
					OFFSET 0.00000 -3.74820 0.00000
					CHANNELS 3 Zrotation Xrotation Yrotation
					JOINT RightToeBase
					{
						OFFSET 0.00000 0.06325 14.43120
						CHANNELS 3 Zrotation Xrotation Yrotation
						End site
						{
							OFFSET 0.00000 0.00000 0.00000
						}
					}
				}
			}
		}
	}
	JOINT LeftUpLeg
	{
		OFFSET 9.98441 0.00000 0.00000
		CHANNELS 3 Zrotation Xrotation Yrotation
		JOINT LeftLeg
		{
			OFFSET 0.00000 -42.11800 0.00000
			CHANNELS 3 Zrotation Xrotation Yrotation
			JOINT LeftFoot
			{
				OFFSET 0.00000 -45.00070 0.00000
				CHANNELS 3 Zrotation Xrotation Yrotation
				JOINT LeftForeFoot
				{
					OFFSET 0.00000 -3.74824 0.00000
					CHANNELS 3 Zrotation Xrotation Yrotation
					JOINT LeftToeBase
					{
						OFFSET 0.00000 0.06325 14.43110
						CHANNELS 3 Zrotation Xrotation Yrotation
						End site
						{
							OFFSET 0.00000 0.00000 0.00000
						}
					}
				}
			}
		}
	}
}
MOTION
Frames: 4
Frame Time: 0.050000
-0.024591727641018052 -0.03090161774567752 0.04439790735211902 -0.04776565128652552 -0.021705851676391497 0.03593726781583622 1.3949033527205223 2.389461164421854 -1.5476542100593327 -0.5440390525653991 3.978974205884499 0.346790848864377 -0.6848558419203515 -1.503823684312695 1.8764353757786751 -0.8886057463972784 -0.6433658780843498 -0.24374761238893652 0.017247617733199126 12.419093184627544 -0.7843178882896715 0.4980654412617888 -1.1674072069264056 -3.038112095439502 0.9269814892956465 -17.123907375965537 -0.3347448454683643 -4.4964182483506105 1.8736084412574763 -16.11984840392688 72.5291495164728 15.289946248156868 6.903626614505555 0.3476681568057273 1.4640441212714468 65.4777632733247 27.31963650252904 -0.23970561910834068 -5.70876471125032 4.574770329719907 -0.15903727072961893 -1.5945730449032607 -0.048122580794651516 0.007091839614993933 -56.207466379925364 0.007997352134012647 -0.022052323467745674 -56.25024188690521 -38.79538908813943 0.009323192144234526 0.007138599288443301 -0.03853795090806088 -0.021196114859708112 0.025183815560403947 -0.022613933999678714 0.013719105861186385 -0.002496308158256015 -36.713626647053836 0.015379617844209024 0.03899875006898566 0.022005196638995667 -0.00974799882138112 -0.007943773441666089 -0.023893906145182258 0.022716250699350547 0.00652600639256609 -19.7788375672086 0.032235905400953016 -0.004526128286863269 0.04591036490586412 0.011102553059358393 -0.035216814786964236 0.047015422646772664 -0.021143582268892513 -0.010716109764109843 24.041810764648016 0.017520627710648076 0.029722547425973682 28.828279594473667 -0.016554302105483892 0.0056681671128491155 28.86786386346823 0.031549954253401034 -0.011086448922953764 4.314470268334473 1.3763904051871838 14.924066563941354 -79.16329261387533 22.1939474114733 -2.0951378663834648 9.451883131492435 3.9093318273351585 -36.84222741463335 -28.566642404435953 9.268519163917384 -5.138393980162532 -0.5223943830992848 0.08616379732427878 -8.154743632921233 -0.042424399453439024 0.03284590489188403 44.559147123578725 0.0033230214764137997 -0.047206164999655166 44.556502103889464 12.444190701182986 0.041305103513720506 -0.010922102449832934 0.004963075650766265 -0.01975973738171919 -0.027518872341880992 0.014582220915287032 0.04476982642047988 -0.03369384494226407 11.068695267714185 -0.0388795059329197 0.030828684489778355 -0.031687250065211926 -0.033355020840288 0.024771628057107226 0.022583439580476938 0.026319018421318452 -0.01387776865412783 4.790736451043576 0.024197944197185066 -0.007722698614451279 -0.0016331093638786496 -0.03808413415333272 -0.04953774162691063 -0.023858210579066345 0.04287582101355891 0.03718038155423682 -5.5519890042505375 0.046276705136875804 -0.03772457404758643 -6.753840413101227 0.013993561363828897 0.04803208075880372 -6.688057005741924 0.04830806327496454 0.039903212572133744 0.04937853683875867 0.02211028206871746 -0.02042662509728806 8.011495174334282 3.4493877242546507 -19.24667857250082 0.002744530914888578 10.418709828020729 0.054976329272600225 -5.580403438620412 -15.663919015208315 3.170945761981346 -0.001226751230008631 0.03518031232328593 -0.0295537450864116 0.020385205628259198 4.734948267919825 -0.042482149368389226 12.452653324484078 -8.276264038414755 6.86343846340402 -0.003528548731631853 46.36138586492833 -0.031243917892475465 -4.347842925654 -14.753002083851337 -3.8595759733378445 0.028173357809995254 -0.029363607292619127 -0.017508502395350248 0.04519671375851965 -10.730282524273363 0.02352216097638929 
-0.0015687920262761066 0.04359902959055081 0.029497102956385038 -0.004785033453528521 -0.018441661665046842 0.03396573838713844 1.7714619918393573 2.5608818066274197 -1.5409376707302553 -0.5474933280177899 3.865616698830114 0.3191443215276569 -0.6700402278016973 -1.4191890725057754 1.6986952449636448 -0.8481978816951947 -0.6302189518370451 -0.1782384990789302 0.06244843808581973 12.31263396903761 -0.9108438597904014 0.5325102071344733 -1.1087310696144668 -2.9926409707844335 1.0004026009282019 -17.10153913522381 -0.297608758096158 -5.053900495008775 2.0833639783810156 -16.430514857310214 74.420275842093 13.976515152863337 6.0255512517136625 -1.6553755672133579 0.7723139105070952 61.852489978999394 27.046918853035102 -0.3192374822113795 -5.674880617778427 4.504067045894173 -0.12608174335991917 -1.6101382280328138 0.040002828615961404 -0.009308443917500313 -56.282536953819935 0.011931410178976668 0.004222239067815131 -56.27376980547096 -38.796351805794124 0.04933135767509135 -0.04442298772643077 0.0495146931175515 -0.008546933066880017 0.013913923983017521 -0.04032242868634767 -0.007652830208007101 0.029526520346406283 -36.68775074675814 -0.022701080462435193 -0.015688257669062462 0.005035841553003672 0.021811627876850474 -0.015497921414916705 0.03487645340198729 -0.03407744959833409 0.02802377927449307 -19.791478220314133 -0.01832677029388033 -0.000537359893213285 0.04054288021686356 0.0021856689033863215 -0.03245747033004385 0.011222391252791074 -0.011396303011191487 -0.010888645210505915 24.054327812086093 -0.013760379446172154 0.03473809213239035 28.85474570515384 0.005671057517229064 0.01826091755474911 28.821905439602514 -0.041087314909256364 -0.0010268046735857964 4.7761534882477905 1.4935918039917677 14.904547363307346 -79.36168733083274 21.775451328344147 -2.552414639621625 9.442482433946484 3.5039230952125293 -36.13450455377202 -27.7007426186277 8.077981958207289 -4.031699587383044 -0.5097266855298902 0.11339363803748836 -8.10967726926138 0.04006012904021964 -0.01437046571975821 44.54674256992159 0.01757477860819668 -0.04015690695920183 44.615660038960435 12.471716140106675 -0.01985300299972556 0.0020468047746774907 -0.0159096808189638 0.034465247045595296 0.03246320019327399 0.030027232482181667 -0.017672210739206915 0.02210250869157137 11.071429107719243 -0.010745148791430343 0.016297186590815603 0.0043563218511472514 0.023692379508663205 -0.009452139431439611 0.009220603910796097 0.03081487662364828 0.0007636027338610183 4.765124020225143 -0.0021156268307023374 0.029252117803842716 0.03986106151526547 -0.028566613635750793 -0.023751906905571666 0.04054647512795591 0.0035018029792782987 -0.026684899240326725 -5.640355061810318 -0.026554314157035012 0.03807779962193977 -6.6841198454551565 0.022723923499191712 0.04834884781028501 -6.741552879754569 0.0009121299110316144 0.0010972329623442775 -0.043798745107628684 -0.018126446464695443 -0.02490807958321378 8.023973266087205 3.4494936791260895 -19.258957321201954 -0.026867998933020304 10.42892846662062 0.04913163831638462 -5.6673630291429244 -15.67316863379241 3.1588134430651627 -0.012974111791899529 0.019784064002498245 -0.005131303962298904 0.010644156631885594 4.7212648238668455 0.02339111154919586 12.435258863188405 -8.228833724157933 6.879909844315898 0.009269732652680256 46.37613225824647 -0.044071819769665 -4.281062973302264 -14.722126998457293 -3.8558075618905114 0.014435840184009638 -0.005950925592527168 -0.0019102098102414108 -0.003749917053292142 -10.697830048458526 -0.012724612252732252 
0.006131520249603867 0.01275648481705315 -0.008834806967354294 -0.029853934882953882 0.029293870831399605 -0.03861439913373748 2.3091258264696974 2.6553845482241796 -1.6643741659246347 -0.5588337187908357 3.869428435786843 0.39549192280512224 -0.6350307445420776 -1.348717108177146 1.6488368223618295 -0.7687543619696322 -0.5355315606003184 -0.185752287032933 0.13384401542069643 12.319356457117468 -1.0450893594741837 0.5644232200376205 -1.069210178802434 -3.0121304833974163 1.0917061477903476 -17.16867238896474 -0.3271377897706488 -5.879782544954759 2.251833479141758 -16.812419007453546 76.16466899435737 13.039062712425759 5.648835969940706 -3.5978799255463647 0.23167580883649885 59.536630265110624 26.637254171045317 -0.2866394589670598 -5.772458795550294 4.509164339576452 -0.16326782191298414 -1.622291254239102 0.022114692900041276 0.0315640084704113 -56.260797223507666 0.04002558471091347 0.03084131872653282 -56.25606436924983 -38.76407138776874 0.004229734139082894 -9.000403874157206e-05 0.04110522067629046 -0.008998205251507426 0.00980248602698653 -0.027759234308115437 0.011148779884732321 0.04289643360942219 -36.73471036151265 -0.0388308578812802 0.026051734834694393 -0.034636155962515285 -0.034576332451271286 0.042802227904122726 -0.02942187665746359 -0.011851296211225671 -0.022106025799271706 -19.78341329833575 -0.041852996986983415 -0.03960677895899672 -0.04056855856119816 0.010002665258347662 0.03756757555033626 0.04910105151389258 -0.03140139663495383 -0.00931255865747791 24.06248216866604 0.0030959394146252333 0.026109270356481553 28.845191696803997 0.008721333383531742 -0.017547147433798795 28.86957920865124 0.0296986670422281 -0.01668087008844296 5.373764440142899 1.5784045419830994 15.018850051445312 -79.54819895165421 21.19639367626727 -3.1586135423891917 9.415510858614129 3.64508121225141 -35.806175568966076 -27.014860674518523 7.02488461640454 -3.1138119191387914 -0.47220996145164745 0.0807066775899011 -8.10152308681823 -0.006143100988588429 0.04124826746327653 44.600944466745275 0.01735611018983338 0.03615830302411431 44.56190905071303 12.509407738820313 0.021600370930885005 -0.015120569236089683 0.02944050329304797 0.009110538923467115 0.0071146668201394194 -0.03151105644756008 -0.04251782017195025 -0.01990357248238875 11.149259562307279 -0.014535817775167617 0.019420150605436698 0.004923660892963835 0.027632573730152266 -0.025594923951348755 -0.0255589414093178 0.04091936732071834 0.02756844713264178 4.754188888530988 -0.017378776318825343 0.015309711659565203 0.017094907478899614 -0.03698463560321996 -0.033926577999706366 -0.00670354144641683 0.02330605090959029 0.010821623065974137 -5.614725550714554 0.04660750312527561 0.032993737421524824 -6.729703086019005 -0.03982015723120612 0.018282707046812677 -6.712763066924324 0.04881543320576095 -0.043454179925679084 -0.008753688648813823 -0.029884897455135097 -0.04200291130742738 8.047770515525887 3.5164809524031906 -19.238554553912486 -0.014353948882679116 10.367467445365293 0.0032157147765307145 -5.612768326615502 -15.680110804341842 3.1572153603219073 0.042388502340153435 -0.027302157247878545 -0.0039450459590955455 0.01619676854350579 4.652938081376809 -0.03626398260508428 12.450482262859015 -8.222450575752294 6.899041809890499 0.033501464891841956 46.332996637808456 -0.01727436019096229 -4.308781137189771 -14.758569811277937 -3.81667977403119 0.03326449238845412 0.03042761511221335 0.01891235375311671 -0.026682175677764382 -10.732660895373542 -0.010858330085265504 
-0.027122310021115432 0.004586069553347268 -0.011239765559030043 -0.011914097515076522 0.008104780915600414 0.020944886481215227 2.897133905979281 2.8022898733306785 -1.8297429004537737 -0.6195337086327535 3.789447792558246 0.3867026604991699 -0.6063245647507113 -1.3763248522974765 1.6234531889946255 -0.7061226179497384 -0.5394405769798258 -0.172320081370204 0.16483692366004196 12.343582762577391 -1.1694709876858957 0.5808830556773888 -1.0094477351170705 -3.2026007674783896 1.0869956649379635 -17.257474416268224 -0.3156006901291616 -6.596441811629921 2.465053178533868 -17.19381827936277 77.70991387361502 12.44762493100945 5.165513835391052 -5.789791829705514 0.2650645976933894 57.51757546234958 26.19938504553401 -0.3321108287781114 -5.686317307207878 4.5207931737255675 -0.1549293551375553 -1.6321052484297682 -0.022207688995727403 -0.018534674140268093 -56.262871439847615 -0.017555319127288253 -0.045548773592524135 -56.257101149667996 -38.72985182897924 0.038222107097310325 0.049303209028936014 -0.005575102238469575 -0.03124586044282863 0.011368363086259922 0.01908702138922441 -0.013697853697775268 0.008869115445047263 -36.69987248323867 -0.03571308052688353 0.02309649610610543 0.025633782692846056 -0.01470718197959562 -0.0037878927932128614 0.04522588252129803 0.03931676869852871 -0.044802338531068985 -19.73701645744831 -0.045098030355355215 -0.019222982823530035 0.008294040839517269 -0.0163888551062315 -0.024066010665663374 0.020709094561558238 -0.045911471493401225 0.0172930067571811 24.014282699699248 -0.013005631934782125 -0.04141176959464593 28.817789984589265 -0.006152634142498907 0.02523305052701624 28.874173486749562 0.0028437785462847825 -0.049695346381806504 6.040482277967521 1.7196430391944608 15.120167557920977 -79.81995351374557 20.707786505776102 -3.7396196735691687 9.176286288473529 4.223861574137931 -35.70708321672109 -26.4541231043131 6.064769135345147 -2.437448333370139 -0.49377962061971953 0.03679685595914878 -8.093280903164409 -0.03877117859851911 -0.014246024744724478 44.543194471258445 -0.036744724255527945 0.018936213762579954 44.610273709172795 12.463699151650104 -0.015127145600691805 0.02531620791354274 -0.04245000024152396 0.003904547989937718 0.04040198616590301 0.025268232759204364 0.01809940782135257 -0.001179665514803073 11.099860132777472 0.034513625697071317 -0.04691453300094255 0.0043916685311806425 -0.010953328765532662 0.027861082346204172 0.013823574428627645 -0.00840190782479074 0.03736540127547596 4.772857040497388 0.03146473297783188 -0.03717328161786808 -0.00598294013351075 0.014560926391314143 0.018510887584003557 0.012251282980646434 -0.028584533496712517 -0.01701054990450253 -5.637357627647414 0.009327596727025064 0.004773072513606696 -6.766818559666223 -0.002238490204970534 -0.04547992882033378 -6.71009299280458 0.003433046434935801 -0.038522524737248924 -0.010493795268020942 -0.005163874885755104 0.018746436580852156 8.088377632182508 3.52684256443008 -19.1780876637799 -0.027239418647141977 10.408482077210396 0.05664689793059059 -5.63189620173979 -15.645805554268659 3.1887466497095165 -0.004549093728307797 0.019059362123638686 0.005463766366100601 -0.01883606545908189 4.7174821927921595 -0.017574015622787938 12.429439439930743 -8.242082872875537 6.917761214534938 -0.03837755878893665 46.3435304450932 0.03476782953267472 -4.336313232945205 -14.701630182387875 -3.8099221019388105 0.00028672863858175565 0.02434430447868058 0.003017382996874153 -0.02111561073358877 -10.71704285548568 0.007566937740146429 
